<svg width="33" height="33" viewBox="0 0 33 33" fill="none" xmlns="http://www.w3.org/2000/svg">
<path d="M29.6667 21.9288C29.6667 26.7821 26.7733 29.6755 21.92 29.6755H20.3333C19.6 29.6755 19 29.0755 19 28.3421V20.6488C19 20.2888 19.2933 19.9821 19.6533 19.9821L22 19.9421C22.1867 19.9288 22.3467 19.7955 22.3867 19.6088L22.8534 17.0621C22.8934 16.8221 22.7067 16.5955 22.4533 16.5955L19.6133 16.6355C19.24 16.6355 18.9467 16.3421 18.9333 15.9821L18.88 12.7155C18.88 12.5021 19.0533 12.3155 19.28 12.3155L22.48 12.2621C22.7066 12.2621 22.88 12.0888 22.88 11.8621L22.8267 8.66211C22.8267 8.43544 22.6533 8.26213 22.4267 8.26213L18.8267 8.31547C16.6133 8.35547 14.8534 10.1688 14.8934 12.3821L14.96 16.0488C14.9733 16.4221 14.68 16.7155 14.3067 16.7288L12.7067 16.7555C12.48 16.7555 12.3067 16.9288 12.3067 17.1554L12.3467 19.6888C12.3467 19.9155 12.52 20.0888 12.7467 20.0888L14.3467 20.0621C14.72 20.0621 15.0133 20.3555 15.0267 20.7155L15.1466 28.3155C15.16 29.0621 14.56 29.6755 13.8133 29.6755H10.7467C5.89333 29.6755 3 26.7821 3 21.9154V10.7555C3 5.90212 5.89333 3.00879 10.7467 3.00879H21.92C26.7733 3.00879 29.6667 5.90212 29.6667 10.7555V21.9288Z" fill="white"/>
</svg>
